<svg width="180" height="180" viewBox="0 0 180 180" fill="none" xmlns="http://www.w3.org/2000/svg">
<rect width="180" height="180" fill="#B3DE74"/>
<path d="M66.0059 116L66.0674 61.1826C66.0674 59.0498 65.6572 57.5732 64.8369 56.7529C64.0576 55.9326 62.9092 55.5225 61.3916 55.5225C60.2432 55.5225 59.0742 55.6865 57.8848 56.0146C56.6953 56.3428 55.6084 56.7529 54.624 57.2451L52.7168 51.6465C54.0293 50.7852 55.6494 50.0674 57.5771 49.4932C59.5049 48.8779 61.4326 48.5703 63.3604 48.5703C66.7646 48.5703 69.2871 49.4521 70.9277 51.2158C72.6094 52.9795 73.4502 55.8301 73.4502 59.7676V60.3828C75.624 56.5273 78.4746 53.5332 82.002 51.4004C85.5703 49.2676 89.7744 48.2012 94.6143 48.2012C101.874 48.2012 107.37 50.3545 111.103 54.6611C114.835 58.9678 116.701 65.8994 116.701 75.4561V141.532H109.38V75.5176C109.38 67.8887 107.944 62.4746 105.073 59.2754C102.243 56.0762 98.1826 54.4766 92.8916 54.4766C87.8057 54.4766 83.6631 55.7275 80.4639 58.2295C77.2646 60.7314 74.9268 64.0947 73.4502 68.3193V116H66.0059Z" fill="#25282A"/>
</svg>
